# xmcd
#
# Track frame offsets: 
#        150
#        12405
#        25350
#        37530
#        51652
#        68250
#        80567
#        93570
#        105652
#        118087
#        133990
#        147337
#        161280
#        173912
#        186132
#        198787
#        211570
#
# Disc length: 2982 seconds
#
# Revision: 0
# Processed by: cddbd v1.5.1PL0 Copyright (c) Steve Scherf et al.
# Submitted via: ExactAudioCopy v0.95b1
#
DISCID=e10ba411
DTITLE=Merle Haggard - 2 CD Super Hit Set, Disc 1
DYEAR=2000
DGENRE=Country
TTITLE0=Okie From Muskogee
TTITLE1=Sing Me Back Home
TTITLE2=Workin' Man Blues
TTITLE3=Always Wanting You
TTITLE4=Daddy Frank
TTITLE5=Everybody's Had The Blues
TTITLE6=Fightin' Side Of Me
TTITLE7=Things Aren't Funny Anymore
TTITLE8=If We Make It Through December
TTITLE9=It's All In The Movies
TTITLE10=Holding Things Together
TTITLE11=I Threw Away The Rose
TTITLE12=It's Been A Great Afternoon
TTITLE13=I Take A Lot Of Pride In What I Am
TTITLE14=Silver Wings
TTITLE15=The Emptiest Arms In The World
TTITLE16=The Bottle Let Me Down
EXTD=
EXTT0=
EXTT1=
EXTT2=
EXTT3=
EXTT4=
EXTT5=
EXTT6=
EXTT7=
EXTT8=
EXTT9=
EXTT10=
EXTT11=
EXTT12=
EXTT13=
EXTT14=
EXTT15=
EXTT16=
PLAYORDER=
